# Blender v2.80 (sub 75) OBJ File: ''
# www.blender.org
mtllib Rectangle.mtl
o Cube
v 0.500000 -0.500000 -0.500000
v 0.500000 0.500000 0.500000
v 0.500000 -0.500000 0.500000
v -0.500000 -0.500000 -0.500000
v -0.500000 0.500000 0.500000
v -0.500000 -0.500000 0.500000
vt 0.375000 0.500000
vt 0.625000 0.500000
vt 0.375000 0.750000
vt 0.375000 0.250000
vt 0.625000 0.250000
vt 0.625000 0.750000
vt 0.625000 1.000000
vt 0.375000 1.000000
vn -1.0000 0.0000 0.0000
vn 0.0000 0.0000 1.0000
vn 0.0000 0.7071 -0.7071
vn 0.0000 -1.0000 0.0000
vn 1.0000 0.0000 0.0000
usemtl Material
s off
f 6/1/1 5/2/1 4/3/1
f 3/4/2 2/5/2 5/2/2 6/1/2
f 4/3/3 5/2/3 2/5/3 1/6/3
f 4/3/4 1/6/4 3/7/4 6/8/4
f 2/5/5 3/7/5 1/6/5
