# Blender v2.80 (sub 75) OBJ File: ''
# www.blender.org
mtllib PrismQuarter.mtl
o Cube
v 0.500000 -0.500000 -0.500000
v 0.500000 -0.500000 0.500000
v -0.500000 -0.500000 -0.500000
v -0.500000 0.500000 0.500000
v -0.500000 -0.500000 0.500000
vt 0.625000 1.000000
vt 0.625000 0.750000
vt 0.000000 0.000000
vt 0.375000 0.750000
vt 0.375000 1.000000
vn 0.7071 0.7071 0.0000
vn 0.0000 0.7071 -0.7071
vn 0.0000 0.0000 1.0000
vn 0.0000 -1.0000 0.0000
vn -1.0000 0.0000 0.0000
usemtl Material
s off
f 2/1/1 1/2/1 4/3/1
f 1/2/2 3/4/2 4/3/2
f 4/3/3 5/5/3 2/1/3
f 3/4/4 1/2/4 2/1/4 5/5/4
f 5/5/5 4/3/5 3/4/5
